<svg xmlns="http://www.w3.org/2000/svg" viewBox="0 0 128 128" width="17" height="17">
  <defs>
    <radialGradient id="bg" cx="35%" cy="30%" r="85%">
      <stop offset="0%" stop-color="#fdba74"/>
      <stop offset="55%" stop-color="#f97316"/>
      <stop offset="100%" stop-color="#c2410c"/>
    </radialGradient>
  </defs>
  <circle cx="64" cy="64" r="60" fill="url(#bg)"/>
  <circle cx="64" cy="64" r="60" fill="none" stroke="rgba(255,255,255,0.4)" stroke-width="3"/>
  <circle cx="64" cy="64" r="50" fill="none" stroke="rgba(255,255,255,0.18)" stroke-width="1.5"/>
  <path d="M38,46 H90 A12,12 0 0,1 102,58 V74 A12,12 0 0,1 90,86 H64 L52,98 L56,86 H38 A12,12 0 0,1 26,74 V58 A12,12 0 0,1 38,46 Z" fill="#ffffff"/>
  <path d="M24,40 A44,44 0 0,1 104,40" fill="none" stroke="rgba(255,255,255,0.4)" stroke-width="6" stroke-linecap="round"/>
</svg>
